<?xml version="1.0" standalone="no"?>
<!DOCTYPE svg PUBLIC "-//W3C//DTD SVG 20010904//EN"
 "http://www.w3.org/TR/2001/REC-SVG-20010904/DTD/svg10.dtd">
<svg version="1.0" xmlns="http://www.w3.org/2000/svg"
 width="1280.000000pt" height="640.000000pt" viewBox="0 0 1280.000000 640.000000"
 preserveAspectRatio="xMidYMid meet">
<metadata>
Created by potrace 1.15, written by Peter Selinger 2001-2017
</metadata>
<g transform="translate(0.000000,640.000000) scale(0.100000,-0.100000)"
fill="#000000" stroke="none">
<path d="M9110 6363 c-775 -40 -1482 -284 -2240 -776 -557 -361 -1024 -749
-1960 -1632 -632 -595 -881 -817 -1180 -1051 -644 -504 -1159 -708 -1619 -640
-63 10 -119 19 -123 22 -4 3 3 27 17 53 93 184 526 596 1005 956 179 134 200
160 200 241 0 56 -27 104 -74 133 -36 23 -147 39 -451 68 -239 22 -896 25
-1045 5 -158 -22 -358 -63 -426 -89 -7 -3 -13 32 -18 104 -16 259 -84 682
-162 1022 -84 363 -241 885 -286 951 -47 69 -138 89 -213 47 -54 -30 -84 -94
-179 -377 -118 -355 -208 -710 -271 -1070 -60 -346 -79 -569 -79 -920 0 -319
12 -466 60 -713 146 -750 550 -1304 1182 -1621 308 -154 628 -244 1087 -303
116 -15 320 -17 1951 -20 l1820 -4 12 -93 c28 -222 125 -389 288 -496 313
-205 831 -143 1574 187 157 70 525 257 683 347 l99 56 1386 0 c1315 0 1392 1
1477 19 302 63 556 252 772 574 130 196 252 470 293 660 33 152 68 386 87 569
24 241 24 752 0 968 -95 844 -385 1486 -885 1961 -560 531 -1342 813 -2382
859 -215 9 -276 10 -400 3z m660 -348 c526 -50 932 -157 1310 -346 837 -419
1297 -1184 1381 -2299 22 -287 1 -743 -47 -1050 -44 -283 -82 -407 -185 -610
-89 -175 -152 -264 -279 -391 -103 -104 -125 -121 -210 -162 -169 -83 -45 -77
-1615 -77 -770 0 -1417 -4 -1438 -9 -21 -5 -111 -49 -200 -99 -357 -197 -591
-310 -862 -418 -297 -117 -517 -172 -720 -181 -340 -15 -480 123 -461 454 8
144 -8 187 -89 231 -28 16 -189 17 -1960 23 -1738 5 -1942 7 -2055 22 -576 78
-971 228 -1297 494 -682 553 -880 1587 -573 2988 44 198 130 515 140 515 8 0
111 -412 149 -600 66 -323 106 -641 121 -956 8 -187 12 -216 31 -248 47 -80
157 -104 230 -51 111 80 251 128 476 162 97 15 185 18 503 18 212 0 411 -4
443 -8 l58 -9 -83 -66 c-185 -150 -312 -265 -484 -436 -233 -233 -335 -369
-383 -513 -54 -161 -1 -311 137 -386 111 -61 403 -98 608 -78 565 55 1093 340
1864 1003 172 148 439 393 790 723 589 555 841 783 1124 1019 1064 888 1899
1285 2861 1360 103 8 556 -4 715 -19z"/>
<path d="M9080 5706 c-581 -68 -1181 -295 -1830 -694 -643 -396 -1365 -1017
-1707 -1470 -98 -130 -135 -205 -131 -268 3 -42 7 -50 28 -57 59 -21 175 44
701 389 744 487 1185 731 1679 927 523 207 993 303 1595 326 439 17 817 -20
1175 -116 238 -63 409 -132 702 -280 155 -78 193 -94 225 -91 33 3 41 8 57 41
27 55 33 185 12 267 -102 407 -705 810 -1451 970 -236 51 -347 62 -650 65
-199 3 -326 0 -405 -9z"/>
<path d="M9392 3056 c-204 -50 -378 -237 -414 -444 -51 -297 221 -602 537
-602 255 0 499 208 537 458 25 158 -30 312 -156 437 -141 139 -324 194 -504
151z"/>
<path d="M7217 1620 c-245 -39 -435 -142 -494 -270 -63 -136 -83 -346 -44
-451 93 -248 507 -248 1016 1 263 128 457 281 484 382 39 139 -116 256 -419
320 -109 22 -443 33 -543 18z"/>
</g>
</svg>
